<svg width="130" height="36" viewBox="0 0 130 36" fill="none" xmlns="http://www.w3.org/2000/svg">
<path d="M0 35H4.61719L5.46094 29.0469H10.9922L11.8594 35H16.4531L10.6641 1.39062H5.8125L0 35ZM7.73438 13.7891L7.96875 9.75781H8.48438L8.74219 13.7891L10.4062 25.0625H6.04688L7.73438 13.7891Z" fill="#FB4000"/>
<path d="M30.75 16.2734C31.1484 15.6406 31.5234 14.7031 31.8984 13.4844C32.25 12.2891 32.4375 11.0938 32.4375 9.94531C32.4375 7.8125 31.8281 5.72656 31.2188 4.50781C30.9141 3.92188 30.5625 3.33594 30.1641 2.79688C29.3672 1.69531 29.1094 1.50781 28.9219 1.39062H18.8438V35H30.0469L30.75 33.8047C31.2422 33.0078 31.7109 31.8594 32.2031 30.3359C32.6719 28.8359 32.9062 27.3828 32.9062 25.9766C32.9062 24.4062 32.6484 22.8594 32.1562 21.3359C31.6406 19.8125 31.2422 18.8281 30.9375 18.3359C30.6328 17.8438 30.375 17.4922 30.1875 17.2344V17.1875L30.75 16.2734ZM27.7266 10.3672C27.7266 12.1953 27.3516 13.8359 26.625 15.3125H23.5078V5.375H26.6719L26.9062 5.91406C27.3047 6.66406 27.7266 8.51562 27.7266 10.3672ZM23.5078 31.0156V19.2969H27.1172L27.3984 19.9297C27.5859 20.375 27.7734 21.1484 27.9609 22.2031C28.125 23.2812 28.2188 24.4531 28.2188 25.6953C28.2188 27.6172 27.8672 29.3984 27.1641 31.0156H23.5078ZM47.625 34.7891C48.8203 34.3438 49.5938 33.9922 49.9453 33.7344C50.2734 33.4766 50.5078 33.2656 50.6719 33.0781V3.3125L50.0156 2.75C49.5703 2.32812 48.75 1.90625 47.5781 1.50781C46.4062 1.10938 45.1172 0.921875 43.7109 0.921875C42.3047 0.921875 41.0156 1.13281 39.8203 1.57812C38.625 2.02344 37.8516 2.375 37.5 2.63281C37.1484 2.89062 36.9141 3.125 36.75 3.3125V33.0781L37.4297 33.6641C37.875 34.0625 38.6953 34.4609 39.8672 34.8594C42.1406 35.6562 45.2578 35.6797 47.625 34.7891ZM43.7109 4.90625C44.6719 4.90625 45.4453 5.14062 46.0312 5.63281V30.7812L45.7734 30.9688C45.3984 31.2266 44.5547 31.4844 43.7109 31.4844C42.75 31.5078 42 31.2734 41.4141 30.7812V5.63281L41.6484 5.42188C42.0469 5.16406 42.8672 4.90625 43.7109 4.90625ZM64.8281 1.39062V30.7812L64.5938 30.9688C64.1953 31.2266 63.375 31.4844 62.4609 31.4844C61.4766 31.5078 60.7031 31.2734 60.1172 30.7812V1.39062H55.4531V33.0781L56.1328 33.6641C56.625 34.0625 57.4453 34.4609 58.6172 34.8594C59.7656 35.2812 61.0547 35.4688 62.4844 35.4688C63.8906 35.4688 65.2031 35.2578 66.4219 34.7891C67.6172 34.3438 68.3906 33.9922 68.7422 33.7344C69.0703 33.4766 69.3047 33.2656 69.4688 33.0781V1.39062H64.8281ZM77.0859 35H81.75V5.375H86.7422V1.39062H72.0938V5.375H77.0859V35ZM106.922 1.39062V30.7812L106.688 30.9688C106.289 31.2266 105.469 31.4844 104.555 31.4844C103.57 31.5078 102.797 31.2734 102.211 30.7812V1.39062H97.5469V33.0781L98.2266 33.6641C98.7188 34.0625 99.5391 34.4609 100.711 34.8594C101.859 35.2812 103.148 35.4688 104.578 35.4688C105.984 35.4688 107.297 35.2578 108.516 34.7891C109.711 34.3438 110.484 33.9922 110.836 33.7344C111.164 33.4766 111.398 33.2656 111.562 33.0781V1.39062H106.922ZM129.562 3.3125L128.836 2.75C128.391 2.32812 127.594 1.90625 126.445 1.50781C125.297 1.10938 124.008 0.921875 122.602 0.921875C121.195 0.921875 119.883 1.13281 118.688 1.57812C117.492 2.02344 116.719 2.375 116.391 2.63281C116.039 2.89062 115.805 3.125 115.641 3.3125V15.3125L124.898 22.8125V30.7812L124.617 30.9688C124.266 31.2266 123.445 31.4844 122.602 31.4844C121.641 31.5078 120.867 31.2734 120.281 30.7812V25.8828H115.641V33.0781L116.344 33.6641C116.789 34.0625 117.609 34.4609 118.758 34.8594C119.906 35.2812 121.195 35.4688 122.602 35.4688C124.008 35.4688 125.32 35.2578 126.516 34.7891C127.711 34.3438 128.461 33.9922 128.812 33.7344C129.164 33.4766 129.398 33.2656 129.562 33.0781V20.3047L120.281 12.7812V5.63281L120.586 5.42188C120.891 5.16406 121.758 4.90625 122.602 4.90625C123.562 4.90625 124.312 5.14062 124.898 5.63281V10.5312H129.562V3.3125Z" fill="black"/>
</svg>
