<svg width="81" height="36" viewBox="0 0 81 36" fill="none" xmlns="http://www.w3.org/2000/svg">
<path d="M11.2656 34.7891C12.4609 34.3438 13.2344 33.9922 13.5859 33.7344C13.9141 33.4766 14.1484 33.2656 14.3125 33.0781V26.7969H9.67188V30.7812L9.41406 30.9688C9.03906 31.2266 8.19531 31.4844 7.35156 31.4844C6.39062 31.5078 5.64062 31.2734 5.05469 30.7812V5.63281L5.28906 5.42188C5.6875 5.16406 6.50781 4.90625 7.35156 4.90625C8.3125 4.90625 9.08594 5.14062 9.67188 5.63281V9.57031H14.3125V3.3125L13.6562 2.75C13.2109 2.32812 12.3906 1.90625 11.2188 1.50781C10.0469 1.10938 8.75781 0.921875 7.35156 0.921875C5.94531 0.921875 4.65625 1.13281 3.46094 1.57812C2.26562 2.02344 1.49219 2.375 1.14062 2.63281C0.789062 2.89062 0.554688 3.125 0.390625 3.3125V33.0781L1.07031 33.6641C1.51562 34.0625 2.33594 34.4609 3.50781 34.8594C5.78125 35.6562 8.89844 35.6797 11.2656 34.7891Z" fill="#FB4000"/>
<path d="M15.7656 35H20.3828L21.2266 29.0469H26.7578L27.625 35H32.2188L26.4297 1.39062H21.5781L15.7656 35ZM23.5 13.7891L23.7344 9.75781H24.25L24.5078 13.7891L26.1719 25.0625H21.8125L23.5 13.7891ZM47.8281 3.3125L47.1016 2.75C46.6562 2.32812 45.8594 1.90625 44.7109 1.50781C43.5625 1.10938 42.2734 0.921875 40.8672 0.921875C39.4609 0.921875 38.1484 1.13281 36.9531 1.57812C35.7578 2.02344 34.9844 2.375 34.6562 2.63281C34.3047 2.89062 34.0703 3.125 33.9062 3.3125V15.3125L43.1641 22.8125V30.7812L42.8828 30.9688C42.5312 31.2266 41.7109 31.4844 40.8672 31.4844C39.9062 31.5078 39.1328 31.2734 38.5469 30.7812V25.8828H33.9062V33.0781L34.6094 33.6641C35.0547 34.0625 35.875 34.4609 37.0234 34.8594C38.1719 35.2812 39.4609 35.4688 40.8672 35.4688C42.2734 35.4688 43.5859 35.2578 44.7812 34.7891C45.9766 34.3438 46.7266 33.9922 47.0781 33.7344C47.4297 33.4766 47.6641 33.2656 47.8281 33.0781V20.3047L38.5469 12.7812V5.63281L38.8516 5.42188C39.1562 5.16406 40.0234 4.90625 40.8672 4.90625C41.8281 4.90625 42.5781 5.14062 43.1641 5.63281V10.5312H47.8281V3.3125ZM51.9062 35H63.25V31.0156H56.5703V19.8828H62.1953V15.8984H56.5703V5.375H63.25V1.39062H51.9062V35ZM80.3125 3.3125L79.5859 2.75C79.1406 2.32812 78.3438 1.90625 77.1953 1.50781C76.0469 1.10938 74.7578 0.921875 73.3516 0.921875C71.9453 0.921875 70.6328 1.13281 69.4375 1.57812C68.2422 2.02344 67.4688 2.375 67.1406 2.63281C66.7891 2.89062 66.5547 3.125 66.3906 3.3125V15.3125L75.6484 22.8125V30.7812L75.3672 30.9688C75.0156 31.2266 74.1953 31.4844 73.3516 31.4844C72.3906 31.5078 71.6172 31.2734 71.0312 30.7812V25.8828H66.3906V33.0781L67.0938 33.6641C67.5391 34.0625 68.3594 34.4609 69.5078 34.8594C70.6562 35.2812 71.9453 35.4688 73.3516 35.4688C74.7578 35.4688 76.0703 35.2578 77.2656 34.7891C78.4609 34.3438 79.2109 33.9922 79.5625 33.7344C79.9141 33.4766 80.1484 33.2656 80.3125 33.0781V20.3047L71.0312 12.7812V5.63281L71.3359 5.42188C71.6406 5.16406 72.5078 4.90625 73.3516 4.90625C74.3125 4.90625 75.0625 5.14062 75.6484 5.63281V10.5312H80.3125V3.3125Z" fill="black"/>
</svg>
