<svg width="118" height="36" viewBox="0 0 118 36" fill="none" xmlns="http://www.w3.org/2000/svg">
<path d="M11.2656 34.7891C12.4609 34.3438 13.2344 33.9922 13.5859 33.7344C13.9141 33.4766 14.1484 33.2656 14.3125 33.0781V26.7969H9.67188V30.7812L9.41406 30.9688C9.03906 31.2266 8.19531 31.4844 7.35156 31.4844C6.39062 31.5078 5.64062 31.2734 5.05469 30.7812V5.63281L5.28906 5.42188C5.6875 5.16406 6.50781 4.90625 7.35156 4.90625C8.3125 4.90625 9.08594 5.14062 9.67188 5.63281V9.57031H14.3125V3.3125L13.6562 2.75C13.2109 2.32812 12.3906 1.90625 11.2188 1.50781C10.0469 1.10938 8.75781 0.921875 7.35156 0.921875C5.94531 0.921875 4.65625 1.13281 3.46094 1.57812C2.26562 2.02344 1.49219 2.375 1.14062 2.63281C0.789062 2.89062 0.554688 3.125 0.390625 3.3125V33.0781L1.07031 33.6641C1.51562 34.0625 2.33594 34.4609 3.50781 34.8594C5.78125 35.6562 8.89844 35.6797 11.2656 34.7891Z" fill="#FB4000"/>
<path d="M29.0312 34.7891C30.2266 34.3438 31 33.9922 31.3516 33.7344C31.6797 33.4766 31.9141 33.2656 32.0781 33.0781V3.3125L31.4219 2.75C30.9766 2.32812 30.1562 1.90625 28.9844 1.50781C27.8125 1.10938 26.5234 0.921875 25.1172 0.921875C23.7109 0.921875 22.4219 1.13281 21.2266 1.57812C20.0312 2.02344 19.2578 2.375 18.9062 2.63281C18.5547 2.89062 18.3203 3.125 18.1562 3.3125V33.0781L18.8359 33.6641C19.2812 34.0625 20.1016 34.4609 21.2734 34.8594C23.5469 35.6562 26.6641 35.6797 29.0312 34.7891ZM25.1172 4.90625C26.0781 4.90625 26.8516 5.14062 27.4375 5.63281V30.7812L27.1797 30.9688C26.8047 31.2266 25.9609 31.4844 25.1172 31.4844C24.1562 31.5078 23.4062 31.2734 22.8203 30.7812V5.63281L23.0547 5.42188C23.4531 5.16406 24.2734 4.90625 25.1172 4.90625ZM47.5234 25.4844H47.0078L46.2812 20.1641L42.4844 1.39062H36.8594V35H41.1484V16.1797L40.6094 11.375H41.1484L41.8516 16.2266L45.6484 35H51.2734V1.39062H47.0078V20.2109L47.5234 25.4844ZM58.9141 35H63.5781V5.375H68.5703V1.39062H53.9219V5.375H58.9141V35ZM68.8281 35H73.4453L74.2891 29.0469H79.8203L80.6875 35H85.2812L79.4922 1.39062H74.6406L68.8281 35ZM76.5625 13.7891L76.7969 9.75781H77.3125L77.5703 13.7891L79.2344 25.0625H74.875L76.5625 13.7891ZM98.5469 34.7891C99.7422 34.3438 100.516 33.9922 100.867 33.7344C101.195 33.4766 101.43 33.2656 101.594 33.0781V26.7969H96.9531V30.7812L96.6953 30.9688C96.3203 31.2266 95.4766 31.4844 94.6328 31.4844C93.6719 31.5078 92.9219 31.2734 92.3359 30.7812V5.63281L92.5703 5.42188C92.9688 5.16406 93.7891 4.90625 94.6328 4.90625C95.5938 4.90625 96.3672 5.14062 96.9531 5.63281V9.57031H101.594V3.3125L100.938 2.75C100.492 2.32812 99.6719 1.90625 98.5 1.50781C97.3281 1.10938 96.0391 0.921875 94.6328 0.921875C93.2266 0.921875 91.9375 1.13281 90.7422 1.57812C89.5469 2.02344 88.7734 2.375 88.4219 2.63281C88.0703 2.89062 87.8359 3.125 87.6719 3.3125V33.0781L88.3516 33.6641C88.7969 34.0625 89.6172 34.4609 90.7891 34.8594C93.0625 35.6562 96.1797 35.6797 98.5469 34.7891ZM108.273 35H112.938V5.375H117.93V1.39062H103.281V5.375H108.273V35Z" fill="black"/>
</svg>
