<svg width="19" height="19" viewBox="0 0 19 19" fill="none" xmlns="http://www.w3.org/2000/svg">
<path d="M3.94489 5.69761C4.90154 5.69761 5.67706 4.92209 5.67706 3.96544C5.67706 3.00879 4.90154 2.23328 3.94489 2.23328C2.98824 2.23328 2.21272 3.00879 2.21272 3.96544C2.21272 4.92209 2.98824 5.69761 3.94489 5.69761Z" fill="black"/>
<path d="M7.31258 7.01023V16.6203H10.2964V11.8679C10.2964 10.6139 10.5323 9.39949 12.0871 9.39949C13.6206 9.39949 13.6396 10.8332 13.6396 11.9471V16.6211H16.625V11.3509C16.625 8.76219 16.0676 6.77274 13.0419 6.77274C11.5892 6.77274 10.6154 7.56994 10.2172 8.3244H10.1768V7.01023H7.31258ZM2.45016 7.01023H5.43871V16.6203H2.45016V7.01023Z" fill="black"/>
</svg>
