<svg width="199" height="56" viewBox="0 0 199 56" fill="none" xmlns="http://www.w3.org/2000/svg">
<g clip-path="url(#clip0)">
<path fill-rule="evenodd" clip-rule="evenodd" d="M46.678 31.2485L47.5221 39.747H46.678L45.4882 31.173L39.2711 0.918213H30.0604V55.0822H37.0835V24.7521L36.2009 17.009H37.0835L38.2348 24.8276L44.4521 55.0822H53.6628V0.918213H46.678V31.2485Z" fill="black"/>
<path fill-rule="evenodd" clip-rule="evenodd" d="M90.8042 34.9878L90.3447 41.1446H89.5406L89.0811 34.9878L84.0649 0.918213H76.5217L86.171 55.0822H93.7141L103.364 0.918213H95.8202L90.8042 34.9878Z" fill="black"/>
<path fill-rule="evenodd" clip-rule="evenodd" d="M143.865 1.0234C141.996 0.378354 139.897 0.0749512 137.609 0.0749512C135.32 0.0749512 133.183 0.416384 131.238 1.13728C129.292 1.85797 128.033 2.42737 127.499 2.84465C126.927 3.26194 126.546 3.64119 126.279 3.9448V23.3707L141.347 35.5121V48.4119L140.889 48.7154C140.317 49.1326 138.982 49.5501 137.609 49.5501C136.044 49.5882 134.786 49.2089 133.832 48.4119V40.4823H126.279V52.1301L127.423 53.0785C128.148 53.7236 129.483 54.3686 131.352 55.0137C133.222 55.6965 135.32 56.0002 137.609 56.0002C139.897 56.0002 142.034 55.6587 143.979 54.8998C145.925 54.1789 147.145 53.6099 147.718 53.1926C148.29 52.7751 148.671 52.4337 148.938 52.1301V31.4521L133.832 19.2731V7.70119L134.328 7.35955C134.824 6.94227 136.235 6.52477 137.609 6.52477C139.172 6.52477 140.393 6.90445 141.347 7.70119V15.6308H148.938V3.9448L147.756 3.03438C147.031 2.35131 145.734 1.66844 143.865 1.0234Z" fill="black"/>
<mask id="mask0" mask-type="alpha" maskUnits="userSpaceOnUse" x="171" y="0" width="28" height="56">
<path d="M171.578 0.83374H198.358V55.2411H171.578V0.83374Z" fill="white"/>
</mask>
<g mask="url(#mask0)">
<path fill-rule="evenodd" clip-rule="evenodd" d="M181.421 39.1543L184.167 20.9045L184.549 14.3786H185.388L185.808 20.9045L188.516 39.1543H181.421ZM188.936 0.83374H181.039L171.578 55.2411H179.094L180.467 45.6043H189.47L190.881 55.2411H198.358L188.936 0.83374Z" fill="black"/>
</g>
<path fill-rule="evenodd" clip-rule="evenodd" d="M7.09952 8.61175L-0.483765 14.652V51.7505L0.622581 52.6992C1.42345 53.3442 2.7588 53.9893 4.66623 54.6341C6.53542 55.3172 8.63361 55.6208 10.9606 55.6208C13.2493 55.6208 15.3856 55.2792 17.3692 54.5205C19.3149 53.7996 20.5738 53.2304 21.1459 52.8131C21.6799 52.3956 22.0615 52.0542 22.3285 51.7505V0.454346H14.7752V48.0324L14.6528 48.13L14.3939 48.336C13.7454 48.7533 12.41 49.1708 10.9224 49.1708C9.32019 49.2086 8.06132 48.8294 7.10771 48.0324" fill="#FB4000"/>
<path fill-rule="evenodd" clip-rule="evenodd" d="M118.512 0.83374H110.957V55.2413H118.512V48.7154V0.83374Z" fill="black"/>
<path fill-rule="evenodd" clip-rule="evenodd" d="M68.9547 0.66333H61.3992V55.0709H68.9547V48.545V0.66333Z" fill="black"/>
<path fill-rule="evenodd" clip-rule="evenodd" d="M156.549 0.83374V15.0222V46.5889V48.7154V55.2413H164.104V48.7154V0.83374H156.549Z" fill="black"/>
</g>
<defs>
<clipPath id="clip0">
<rect width="199" height="56" fill="white"/>
</clipPath>
</defs>
</svg>
