<svg width="74" height="35" viewBox="0 0 74 35" fill="none" xmlns="http://www.w3.org/2000/svg">
<path d="M10.7734 13.3516L10.2812 16.1406H10L9.53125 13.3516L5.14844 0.390625H0.390625V34H5.05469V13.3047L4.67969 9.67188H5.19531L6.01562 13.3047L9.90625 24.0625H10.375L14.2656 13.3047L15.0859 9.67188H15.625L15.2266 13.3047V34H19.8906V0.390625H15.1328L10.7734 13.3516Z" fill="#FB4000"/>
<path d="M24.6719 34H36.0156V30.0156H29.3359V18.8828H34.9609V14.8984H29.3359V4.375H36.0156V0.390625H24.6719V34ZM50.5234 24.4844H50.0078L49.2812 19.1641L45.4844 0.390625H39.8594V34H44.1484V15.1797L43.6094 10.375H44.1484L44.8516 15.2266L48.6484 34H54.2734V0.390625H50.0078V19.2109L50.5234 24.4844ZM68.4531 0.390625V29.7812L68.2188 29.9688C67.8203 30.2266 67 30.4844 66.0859 30.4844C65.1016 30.5078 64.3281 30.2734 63.7422 29.7812V0.390625H59.0781V32.0781L59.7578 32.6641C60.25 33.0625 61.0703 33.4609 62.2422 33.8594C63.3906 34.2812 64.6797 34.4688 66.1094 34.4688C67.5156 34.4688 68.8281 34.2578 70.0469 33.7891C71.2422 33.3438 72.0156 32.9922 72.3672 32.7344C72.6953 32.4766 72.9297 32.2656 73.0938 32.0781V0.390625H68.4531Z" fill="black"/>
</svg>
