<svg width="320" height="768" viewBox="0 0 320 768" fill="none" xmlns="http://www.w3.org/2000/svg">
<path d="M319.715 54.8281L303.064 41.9375C292.859 32.2695 274.598 22.6016 248.279 13.4707C221.961 4.33984 192.42 0.0429688 160.193 0.0429688C127.967 0.0429688 97.8887 4.87695 70.4961 15.082C43.1035 25.2871 25.3789 33.3438 17.8594 39.252C9.80273 45.1602 4.43164 50.5312 0.671875 54.8281V329.828L212.83 501.703V684.32L206.385 688.617C198.328 694.525 179.529 700.434 160.193 700.434C138.172 700.971 120.447 695.6 107.02 684.32V572.064H0.671875V736.957L16.7852 750.385C26.9902 759.516 45.7891 768.646 72.1074 777.777C98.4258 787.445 127.967 791.742 160.193 791.742C192.42 791.742 222.498 786.908 249.891 776.166C277.283 765.961 294.471 757.904 302.527 751.996C310.584 746.088 315.955 741.254 319.715 736.957V444.232L107.02 271.82V108.002L114.002 103.168C120.984 97.2598 140.857 91.3516 160.193 91.3516C182.215 91.3516 199.402 96.7227 212.83 108.002V220.258H319.715V54.8281Z" fill="#E5E5E6" fill-opacity="0.5"/>
</svg>
